<mxfile host="app.diagrams.net" agent="Mozilla/5.0 (X11; Linux x86_64; rv:142.0) Gecko/20100101 Firefox/142.0" version="28.1.1">
  <diagram name="Page-1" id="rD1pq2RR0rX45yfyD-T1">
    <mxGraphModel dx="1426" dy="797" grid="0" gridSize="10" guides="1" tooltips="1" connect="1" arrows="1" fold="1" page="1" pageScale="1" pageWidth="850" pageHeight="1100" background="#ffffff" math="0" shadow="0">
      <root>
        <mxCell id="0" />
        <mxCell id="1" parent="0" />
        <mxCell id="uSHFyEGqvVHMhk2APjxr-140" value="" style="edgeStyle=orthogonalEdgeStyle;rounded=0;orthogonalLoop=1;jettySize=auto;html=1;" edge="1" parent="1">
          <mxGeometry relative="1" as="geometry">
            <mxPoint x="400" y="150" as="targetPoint" />
          </mxGeometry>
        </mxCell>
        <mxCell id="uSHFyEGqvVHMhk2APjxr-141" value="Start" style="ellipse;whiteSpace=wrap;html=1;" vertex="1" parent="1">
          <mxGeometry x="200" y="240" width="120" height="40" as="geometry" />
        </mxCell>
        <mxCell id="uSHFyEGqvVHMhk2APjxr-142" value="l: list[int]" style="shape=parallelogram;perimeter=parallelogramPerimeter;whiteSpace=wrap;html=1;fixedSize=1;" vertex="1" parent="1">
          <mxGeometry x="360" y="240" width="120" height="40" as="geometry" />
        </mxCell>
        <mxCell id="uSHFyEGqvVHMhk2APjxr-143" value="For each number&amp;nbsp;&lt;div&gt;in the list check if they are&amp;nbsp;&lt;/div&gt;&lt;div&gt;smaller or equal than the&amp;nbsp;&lt;/div&gt;&lt;div&gt;next one&lt;/div&gt;" style="rhombus;whiteSpace=wrap;html=1;fontSize=10;" vertex="1" parent="1">
          <mxGeometry x="520" y="222.5" width="210" height="75" as="geometry" />
        </mxCell>
        <mxCell id="uSHFyEGqvVHMhk2APjxr-144" value="False" style="shape=parallelogram;perimeter=parallelogramPerimeter;whiteSpace=wrap;html=1;fixedSize=1;" vertex="1" parent="1">
          <mxGeometry x="770" y="240" width="120" height="40" as="geometry" />
        </mxCell>
        <mxCell id="uSHFyEGqvVHMhk2APjxr-145" value="End" style="ellipse;whiteSpace=wrap;html=1;" vertex="1" parent="1">
          <mxGeometry x="930" y="240" width="120" height="40" as="geometry" />
        </mxCell>
        <mxCell id="uSHFyEGqvVHMhk2APjxr-146" value="False" style="shape=parallelogram;perimeter=parallelogramPerimeter;whiteSpace=wrap;html=1;fixedSize=1;" vertex="1" parent="1">
          <mxGeometry x="770" y="357.5" width="120" height="40" as="geometry" />
        </mxCell>
        <mxCell id="uSHFyEGqvVHMhk2APjxr-147" value="End" style="ellipse;whiteSpace=wrap;html=1;" vertex="1" parent="1">
          <mxGeometry x="930" y="357.5" width="120" height="40" as="geometry" />
        </mxCell>
        <mxCell id="uSHFyEGqvVHMhk2APjxr-148" value="True" style="shape=parallelogram;perimeter=parallelogramPerimeter;whiteSpace=wrap;html=1;fixedSize=1;" vertex="1" parent="1">
          <mxGeometry x="565" y="455" width="120" height="40" as="geometry" />
        </mxCell>
        <mxCell id="uSHFyEGqvVHMhk2APjxr-149" value="End" style="ellipse;whiteSpace=wrap;html=1;" vertex="1" parent="1">
          <mxGeometry x="565" y="530" width="120" height="40" as="geometry" />
        </mxCell>
        <mxCell id="uSHFyEGqvVHMhk2APjxr-150" value="" style="endArrow=classic;html=1;rounded=0;exitX=1;exitY=0.5;exitDx=0;exitDy=0;entryX=0;entryY=0.5;entryDx=0;entryDy=0;" edge="1" parent="1" source="uSHFyEGqvVHMhk2APjxr-141" target="uSHFyEGqvVHMhk2APjxr-142">
          <mxGeometry width="50" height="50" relative="1" as="geometry">
            <mxPoint x="370" y="360" as="sourcePoint" />
            <mxPoint x="420" y="310" as="targetPoint" />
          </mxGeometry>
        </mxCell>
        <mxCell id="uSHFyEGqvVHMhk2APjxr-151" value="" style="endArrow=classic;html=1;rounded=0;exitX=1;exitY=0.5;exitDx=0;exitDy=0;entryX=0;entryY=0.5;entryDx=0;entryDy=0;" edge="1" parent="1" source="uSHFyEGqvVHMhk2APjxr-142" target="uSHFyEGqvVHMhk2APjxr-143">
          <mxGeometry width="50" height="50" relative="1" as="geometry">
            <mxPoint x="330" y="270" as="sourcePoint" />
            <mxPoint x="520" y="300" as="targetPoint" />
          </mxGeometry>
        </mxCell>
        <mxCell id="uSHFyEGqvVHMhk2APjxr-152" value="" style="endArrow=classic;html=1;rounded=0;exitX=1;exitY=0.5;exitDx=0;exitDy=0;entryX=0;entryY=0.5;entryDx=0;entryDy=0;" edge="1" parent="1" source="uSHFyEGqvVHMhk2APjxr-143" target="uSHFyEGqvVHMhk2APjxr-144">
          <mxGeometry width="50" height="50" relative="1" as="geometry">
            <mxPoint x="650" y="270" as="sourcePoint" />
            <mxPoint x="690" y="270" as="targetPoint" />
          </mxGeometry>
        </mxCell>
        <mxCell id="uSHFyEGqvVHMhk2APjxr-153" value="No" style="edgeLabel;html=1;align=center;verticalAlign=middle;resizable=0;points=[];" vertex="1" connectable="0" parent="uSHFyEGqvVHMhk2APjxr-152">
          <mxGeometry x="0.0343" y="1" relative="1" as="geometry">
            <mxPoint x="-6" as="offset" />
          </mxGeometry>
        </mxCell>
        <mxCell id="uSHFyEGqvVHMhk2APjxr-154" value="" style="endArrow=classic;html=1;rounded=0;exitX=1;exitY=0.5;exitDx=0;exitDy=0;entryX=0;entryY=0.5;entryDx=0;entryDy=0;" edge="1" parent="1" target="uSHFyEGqvVHMhk2APjxr-146">
          <mxGeometry width="50" height="50" relative="1" as="geometry">
            <mxPoint x="730" y="377.5" as="sourcePoint" />
            <mxPoint x="790" y="307.5" as="targetPoint" />
          </mxGeometry>
        </mxCell>
        <mxCell id="uSHFyEGqvVHMhk2APjxr-155" value="Yes" style="edgeLabel;html=1;align=center;verticalAlign=middle;resizable=0;points=[];" vertex="1" connectable="0" parent="uSHFyEGqvVHMhk2APjxr-154">
          <mxGeometry x="-0.4914" y="1" relative="1" as="geometry">
            <mxPoint x="7" as="offset" />
          </mxGeometry>
        </mxCell>
        <mxCell id="uSHFyEGqvVHMhk2APjxr-156" value="" style="endArrow=classic;html=1;rounded=0;exitX=0.5;exitY=1;exitDx=0;exitDy=0;entryX=0.5;entryY=0;entryDx=0;entryDy=0;" edge="1" parent="1" source="uSHFyEGqvVHMhk2APjxr-143" target="uSHFyEGqvVHMhk2APjxr-163">
          <mxGeometry width="50" height="50" relative="1" as="geometry">
            <mxPoint x="830" y="445" as="sourcePoint" />
            <mxPoint x="860" y="445" as="targetPoint" />
          </mxGeometry>
        </mxCell>
        <mxCell id="uSHFyEGqvVHMhk2APjxr-157" value="Yes" style="edgeLabel;html=1;align=center;verticalAlign=middle;resizable=0;points=[];" vertex="1" connectable="0" parent="uSHFyEGqvVHMhk2APjxr-156">
          <mxGeometry x="-0.3" y="1" relative="1" as="geometry">
            <mxPoint as="offset" />
          </mxGeometry>
        </mxCell>
        <mxCell id="uSHFyEGqvVHMhk2APjxr-158" value="" style="endArrow=classic;html=1;rounded=0;exitX=0.5;exitY=1;exitDx=0;exitDy=0;entryX=0.5;entryY=0;entryDx=0;entryDy=0;" edge="1" parent="1" source="uSHFyEGqvVHMhk2APjxr-163" target="uSHFyEGqvVHMhk2APjxr-148">
          <mxGeometry width="50" height="50" relative="1" as="geometry">
            <mxPoint x="740" y="360" as="sourcePoint" />
            <mxPoint x="625" y="450" as="targetPoint" />
          </mxGeometry>
        </mxCell>
        <mxCell id="uSHFyEGqvVHMhk2APjxr-159" value="No" style="edgeLabel;html=1;align=center;verticalAlign=middle;resizable=0;points=[];" vertex="1" connectable="0" parent="uSHFyEGqvVHMhk2APjxr-158">
          <mxGeometry x="-0.2143" y="-2" relative="1" as="geometry">
            <mxPoint x="2" as="offset" />
          </mxGeometry>
        </mxCell>
        <mxCell id="uSHFyEGqvVHMhk2APjxr-160" value="" style="endArrow=classic;html=1;rounded=0;entryX=0;entryY=0.5;entryDx=0;entryDy=0;exitX=1;exitY=0.5;exitDx=0;exitDy=0;" edge="1" parent="1" source="uSHFyEGqvVHMhk2APjxr-144" target="uSHFyEGqvVHMhk2APjxr-145">
          <mxGeometry width="50" height="50" relative="1" as="geometry">
            <mxPoint x="950" y="260" as="sourcePoint" />
            <mxPoint x="530" y="270" as="targetPoint" />
          </mxGeometry>
        </mxCell>
        <mxCell id="uSHFyEGqvVHMhk2APjxr-161" value="" style="endArrow=classic;html=1;rounded=0;entryX=0;entryY=0.5;entryDx=0;entryDy=0;exitX=1;exitY=0.5;exitDx=0;exitDy=0;" edge="1" parent="1" source="uSHFyEGqvVHMhk2APjxr-146" target="uSHFyEGqvVHMhk2APjxr-147">
          <mxGeometry width="50" height="50" relative="1" as="geometry">
            <mxPoint x="890" y="307.5" as="sourcePoint" />
            <mxPoint x="940" y="307.5" as="targetPoint" />
          </mxGeometry>
        </mxCell>
        <mxCell id="uSHFyEGqvVHMhk2APjxr-162" value="" style="endArrow=classic;html=1;rounded=0;entryX=0.5;entryY=0;entryDx=0;entryDy=0;exitX=0.5;exitY=1;exitDx=0;exitDy=0;" edge="1" parent="1" source="uSHFyEGqvVHMhk2APjxr-148" target="uSHFyEGqvVHMhk2APjxr-149">
          <mxGeometry width="50" height="50" relative="1" as="geometry">
            <mxPoint x="960" y="350" as="sourcePoint" />
            <mxPoint x="1010" y="350" as="targetPoint" />
          </mxGeometry>
        </mxCell>
        <mxCell id="uSHFyEGqvVHMhk2APjxr-163" value="Check if there are numbers that&amp;nbsp;&lt;div&gt;appear more than twice.&lt;/div&gt;" style="rhombus;whiteSpace=wrap;html=1;fontSize=10;" vertex="1" parent="1">
          <mxGeometry x="520" y="340" width="210" height="75" as="geometry" />
        </mxCell>
      </root>
    </mxGraphModel>
  </diagram>
</mxfile>
